<?xml version="1.0" encoding="UTF-8"?>
<svg version="1.1" xmlns="http://www.w3.org/2000/svg" width="238" height="238">
<path d="M0 0 C78.54 0 157.08 0 238 0 C238 78.54 238 157.08 238 238 C159.46 238 80.92 238 0 238 C0 159.46 0 80.92 0 0 Z " fill="#FCD502" transform="translate(0,0)"/>
<path d="M0 0 C78.54 0 157.08 0 238 0 C238 78.54 238 157.08 238 238 C159.46 238 80.92 238 0 238 C0 159.46 0 80.92 0 0 Z M32.37109375 40.7734375 C14.04191614 61.71287358 4.83412552 87.03373726 4.75976562 114.74829102 C4.75016299 116.90096246 4.71912815 119.05263408 4.6875 121.20507812 C4.44310557 153.42775648 18.29908056 180.69043427 40.40234375 203.4765625 C55.91649318 218.08722569 74.51282637 226.87555967 95 232 C96.43472656 232.37125 96.43472656 232.37125 97.8984375 232.75 C126.03039999 238.68988651 156.63622806 231.98967232 180.7734375 216.890625 C206.51107301 200.03191178 225.89449404 175.54594999 232.35595703 145.02978516 C232.95729787 142.02755188 233.49718448 139.02029055 234 136 C234.18433594 134.91976562 234.36867187 133.83953125 234.55859375 132.7265625 C236.44372156 116.81141266 234.89602502 101.46329312 231 86 C230.773125 85.030625 230.54625 84.06125 230.3125 83.0625 C225.46276922 64.63352303 214.30755729 48.30755729 201 35 C200.19820312 34.19820312 199.39640625 33.39640625 198.5703125 32.5703125 C189.41621771 23.89643252 178.4910117 17.14122059 167 12 C165.85724609 11.48179688 165.85724609 11.48179688 164.69140625 10.953125 C118.37211087 -8.82194364 66.23725284 5.04539447 32.37109375 40.7734375 Z " fill="#020101" transform="translate(0,0)"/>
<path d="M0 0 C1.31864548 -0.01606293 2.63729095 -0.03212585 3.99589539 -0.04867554 C5.44362747 -0.06016467 6.89136678 -0.07077292 8.33911133 -0.08056641 C9.06772181 -0.08589008 9.79633228 -0.09121376 10.54702187 -0.09669876 C14.40649997 -0.12343361 18.26594575 -0.14280397 22.12548828 -0.15722656 C25.31393245 -0.17054626 28.50173363 -0.19836028 31.68994141 -0.23925781 C35.5437818 -0.28869266 39.39704056 -0.31336116 43.25118446 -0.32045364 C44.71636615 -0.32714932 46.18153573 -0.34232766 47.64653587 -0.36634445 C60.53531941 -0.56551639 60.53531941 -0.56551639 65.06298828 2.53808594 C69.60806359 7.05615422 69.60806359 7.05615422 69.97973824 10.42048168 C69.97697286 11.73265399 69.97697286 11.73265399 69.97415161 13.07133484 C69.97690094 14.07674316 69.97965027 15.08215149 69.98248291 16.11802673 C69.97169708 17.77095482 69.97169708 17.77095482 69.96069336 19.45727539 C69.96098541 20.61838837 69.96127747 21.77950134 69.96157837 22.97579956 C69.96018233 26.82297171 69.94460803 30.66995143 69.92895508 34.51708984 C69.92522592 37.1808149 69.92228014 39.84452923 69.92037964 42.508255 C69.91416141 48.80868897 69.89774598 55.1090536 69.87768066 61.40945703 C69.85533231 68.58229451 69.84433091 75.75513528 69.83428979 82.9279989 C69.81338004 97.68299177 69.7781974 112.43793023 69.73364258 127.19287109 C66.81713986 125.46962401 64.14656299 123.85266067 61.68286133 121.52099609 C61.15345947 121.02510986 60.62405762 120.52922363 60.07861328 120.01831055 C59.53164795 119.49841553 58.98468262 118.97852051 58.42114258 118.44287109 C57.26300414 117.35747148 56.10415297 116.27283184 54.94458008 115.18896484 C54.38996094 114.66931152 53.8353418 114.1496582 53.26391602 113.61425781 C50.79443316 111.32049119 48.2518797 109.11541505 45.70239258 106.91162109 C42.46954576 104.08929451 39.30283065 101.19360274 36.12817383 98.30615234 C35.33797852 97.60876953 34.5477832 96.91138672 33.73364258 96.19287109 C32.89188477 95.42330078 32.05012695 94.65373047 31.18286133 93.86083984 C28.95296206 91.94853351 28.95296206 91.94853351 26.78149414 92.43115234 C24.57629102 93.25139957 23.27724469 94.16076894 21.51879883 95.71240234 C20.92156006 96.23423096 20.32432129 96.75605957 19.70898438 97.29370117 C19.07774658 97.85855225 18.44650879 98.42340332 17.79614258 99.00537109 C16.80578003 99.87681763 16.80578003 99.87681763 15.79541016 100.76586914 C10.89666325 105.09664539 6.09726158 109.53131135 1.32470703 114.00024414 C-2.75288173 117.79262451 -7.01272598 121.28606254 -11.43823242 124.66943359 C-13.37528531 126.07671117 -13.37528531 126.07671117 -14.26635742 128.19287109 C-14.92635742 128.19287109 -15.58635742 128.19287109 -16.26635742 128.19287109 C-16.33648632 113.04162921 -16.3893646 97.89039482 -16.42179394 82.73902702 C-16.43725271 75.7037297 -16.45832319 68.66853331 -16.49267578 61.63330078 C-16.5258084 54.84466723 -16.54320811 48.05613866 -16.55098915 41.26742935 C-16.55653472 38.67666091 -16.56736374 36.08589824 -16.58354759 33.49517441 C-16.6053056 29.86807574 -16.60832494 26.24141118 -16.60693359 22.61425781 C-16.61771942 21.54179306 -16.62850525 20.46932831 -16.63961792 19.36436462 C-16.61689665 13.89503134 -16.42596266 9.87904767 -13.26635742 5.19287109 C-8.64746577 1.02460302 -6.15700812 0.067985 0 0 Z " fill="#030201" transform="translate(92.266357421875,54.80712890625)"/>
<path d="M0 0 C3 1 3 1 4 3 C4.09463005 4.56664454 4.12630013 6.13728735 4.12698364 7.70678711 C4.13121338 9.19588089 4.13121338 9.19588089 4.13552856 10.71505737 C4.13350433 11.80811188 4.1314801 12.90116638 4.12939453 14.02734375 C4.13114685 15.17534454 4.13289917 16.32334534 4.13470459 17.50613403 C4.13912078 21.31660455 4.13618591 25.12702898 4.1328125 28.9375 C4.13348561 31.57543954 4.13445569 34.21337903 4.13571167 36.85131836 C4.13753228 42.38623559 4.1351299 47.92113948 4.13037109 53.45605469 C4.12492868 59.86011924 4.12669141 66.26415197 4.1321975 72.66821575 C4.13727745 78.82236339 4.1367459 84.97649689 4.13381577 91.13064575 C4.13314673 93.75261438 4.13397409 96.37458382 4.13629532 98.99655151 C4.13882323 102.65527527 4.13497923 106.31393713 4.12939453 109.97265625 C4.13243088 111.61223801 4.13243088 111.61223801 4.13552856 113.28494263 C4.13270874 114.27767181 4.12988892 115.270401 4.12698364 116.29321289 C4.12660662 117.15894424 4.12622959 118.0246756 4.12584114 118.91664124 C4 121 4 121 3 123 C2.34 122.67 1.68 122.34 1 122 C1.00092179 121.38947124 1.00184359 120.77894247 1.00279331 120.14991283 C1.02486595 105.302751 1.04142007 90.45559074 1.05181217 75.60841656 C1.05697113 68.42847289 1.06400624 61.24854016 1.07543945 54.06860352 C1.08539848 47.81146465 1.09185634 41.55433372 1.09408849 35.29718715 C1.09539352 31.98328178 1.09898838 28.66940441 1.10573006 25.35550499 C1.11295428 21.65845756 1.11399035 17.96145761 1.11352539 14.2644043 C1.11712067 13.16245224 1.12071594 12.06050018 1.12442017 10.92515564 C1.12235817 9.41704315 1.12235817 9.41704315 1.12025452 7.87846375 C1.12117631 7.0036822 1.1220981 6.12890066 1.12304783 5.22761059 C1.08851591 2.82650904 1.08851591 2.82650904 0 0 Z " fill="#C1A620" transform="translate(160,60)"/>
<path d="M0 0 C17.49 0 34.98 0 53 0 C52.67 0.99 52.34 1.98 52 3 C52.66 3 53.32 3 54 3 C54.495 4.98 54.495 4.98 55 7 C56.32 6.67 57.64 6.34 59 6 C59.495 7.485 59.495 7.485 60 9 C58.85402344 8.72285156 57.70804688 8.44570312 56.52734375 8.16015625 C54.9974356 7.79410461 53.46748543 7.42822853 51.9375 7.0625 C51.18533203 6.88009766 50.43316406 6.69769531 49.65820312 6.50976562 C48.91376953 6.33251953 48.16933594 6.15527344 47.40234375 5.97265625 C46.72679443 5.81031494 46.05124512 5.64797363 45.35522461 5.48071289 C39.33438854 4.25183073 33.55787071 3.86032634 27.44140625 3.90234375 C26.65225327 3.9037587 25.86310028 3.90517365 25.05003357 3.90663147 C22.55414885 3.91218445 20.05835715 3.92472792 17.5625 3.9375 C15.86002735 3.94252109 14.15755327 3.94708293 12.45507812 3.95117188 C8.30335012 3.96213842 4.15169078 3.97937009 0 4 C0 2.68 0 1.36 0 0 Z " fill="#0D0904" transform="translate(99,0)"/>
<path d="M0 0 C1.32 0.33 2.64 0.66 4 1 C3.21625 1.556875 2.4325 2.11375 1.625 2.6875 C-1.67222022 5.592194 -2.79121753 8.06396873 -3.26171303 12.42685413 C-3.26724379 13.27766906 -3.27277454 14.12848398 -3.2784729 15.00508118 C-3.28963638 15.98799637 -3.30079987 16.97091156 -3.31230164 17.98361206 C-3.31446182 19.05032135 -3.31662201 20.11703064 -3.31884766 21.21606445 C-3.32889328 22.34820877 -3.3389389 23.48035309 -3.34928894 24.64680481 C-3.38015781 28.38562517 -3.39716666 32.12437379 -3.4140625 35.86328125 C-3.43277113 38.45689004 -3.45234432 41.05049273 -3.4727478 43.64408875 C-3.51885876 49.77085849 -3.55625545 55.89762456 -3.58942068 62.02447623 C-3.6276752 69.00154189 -3.6770766 75.97851477 -3.72740483 82.95550215 C-3.83065504 97.3035981 -3.91993786 111.65175687 -4 126 C-4.33 126 -4.66 126 -5 126 C-5.11697224 110.75298548 -5.20505603 95.50599171 -5.25906086 80.25862885 C-5.28480655 73.17845124 -5.31988669 66.09855296 -5.37719727 59.01855469 C-5.43249041 52.18450784 -5.46143188 45.35075124 -5.47438622 38.51649475 C-5.48361673 35.91060319 -5.50164181 33.30472729 -5.52865028 30.69895935 C-5.56500608 27.04570355 -5.56994229 23.3936423 -5.56762695 19.74023438 C-5.58560333 18.66560944 -5.60357971 17.5909845 -5.62210083 16.48379517 C-5.57531818 9.6510603 -4.30302038 5.35879677 0 0 Z " fill="#EECC28" transform="translate(80,56)"/>
<path d="M0 0 C1.45823212 -0.0270043 2.91660675 -0.04639787 4.375 -0.0625 C5.18710938 -0.07410156 5.99921875 -0.08570313 6.8359375 -0.09765625 C9 0 9 0 11 1 C11 1.66 11 2.32 11 3 C13.31 3 15.62 3 18 3 C18 3.66 18 4.32 18 5 C19.27617188 5.13277344 20.55234375 5.26554688 21.8671875 5.40234375 C23.53647996 5.58052665 25.20574964 5.75892314 26.875 5.9375 C27.71675781 6.02451172 28.55851562 6.11152344 29.42578125 6.20117188 C30.23144531 6.28818359 31.03710938 6.37519531 31.8671875 6.46484375 C32.61081543 6.543396 33.35444336 6.62194824 34.12060547 6.70288086 C36 7 36 7 38 8 C47.84369802 8.60937178 57.2561899 7.93133494 66.93359375 6.06738281 C71.02419693 5.28173321 74.8334802 4.84252524 79 5 C65.92364345 13.71757103 40.79232609 11.55475486 26.0625 8.8125 C23.69813696 8.24955642 21.34387926 7.64292152 19 7 C18.26040039 6.80180664 17.52080078 6.60361328 16.75878906 6.39941406 C2.56714527 2.56714527 2.56714527 2.56714527 0 0 Z " fill="#C7B02F" transform="translate(73,224)"/>
<path d="M0 0 C2.89902121 4.34853181 3.79146236 8.95257808 5 14 C5.31517578 15.27810547 5.31517578 15.27810547 5.63671875 16.58203125 C8.98464365 32.79928451 7.61497986 49.96928576 4 66 C3.67 66 3.34 66 3 66 C2.97264382 64.29175867 2.95344494 62.58338595 2.9375 60.875 C2.92589844 59.92367187 2.91429687 58.97234375 2.90234375 57.9921875 C3 55 3 55 3.484375 52.25390625 C5.92490961 36.85265378 3.51923391 21.3127924 0.3671875 6.21630859 C0 4 0 4 0 0 Z " fill="#CFB823" transform="translate(228,80)"/>
<path d="M0 0 C0.33 0.66 0.66 1.32 1 2 C0.22265625 3.7265625 0.22265625 3.7265625 -0.9375 5.625 C-1.618125 6.73875 -2.29875 7.8525 -3 9 C-3.99 9 -4.98 9 -6 9 C-6.2475 10.051875 -6.495 11.10375 -6.75 12.1875 C-7.7797724 15.85054755 -9.58486942 18.0565596 -12 21 C-12.67863055 22.9959722 -13.34641919 24.99568551 -14 27 C-14.495 27.474375 -14.99 27.94875 -15.5 28.4375 C-17.84635518 30.88161997 -18.17675417 33.76189972 -19 37 C-19.65572791 39.00361307 -20.31875294 41.00491933 -21 43 C-21.66 43 -22.32 43 -23 43 C-23.33 45.64 -23.66 48.28 -24 51 C-24.66 51 -25.32 51 -26 51 C-24.37696596 34.02343702 -14.78159126 17.88331918 -4 5 C-3.195625 3.989375 -2.39125 2.97875 -1.5625 1.9375 C-1.046875 1.298125 -0.53125 0.65875 0 0 Z " fill="#E2C923" transform="translate(34,39)"/>
<path d="M0 0 C0.66 0.33 1.32 0.66 2 1 C0.625 3 0.625 3 -1 5 C-1.66 5 -2.32 5 -3 5 C-3.309375 5.928125 -3.309375 5.928125 -3.625 6.875 C-5.56341695 9.87073529 -7.62644275 10.10497461 -11 11 C-11.99 11.33 -12.98 11.66 -14 12 C-14 14.31 -14 16.62 -14 19 C-15.32 19 -16.64 19 -18 19 C-19.67225729 19.30404678 -21.34080104 19.63128912 -23 20 C-16.92031436 12.23151279 -8.86699123 4.48728152 0 0 Z " fill="#E0C425" transform="translate(58,19)"/>
<path d="M0 0 C0.33 0 0.66 0 1 0 C1.02749868 1.83324547 1.04661673 3.6666171 1.0625 5.5 C1.07410156 6.5209375 1.08570313 7.541875 1.09765625 8.59375 C1.00925161 11.67730382 0.66852553 14.63989949 0.25610352 17.69335938 C-0.2713416 22.44388504 -0.38026633 27.22607546 -0.5625 32 C-0.60568359 33.06089844 -0.64886719 34.12179688 -0.69335938 35.21484375 C-0.79855996 37.80979151 -0.90070119 40.40482084 -1 43 C-1.33 43 -1.66 43 -2 43 C-2.04993675 38.48341286 -2.08597002 33.96697774 -2.10986328 29.45019531 C-2.11983806 27.91794022 -2.13342276 26.38570375 -2.15087891 24.85351562 C-2.24479186 16.39030162 -2.25042199 8.23801601 0 0 Z " fill="#D8C12C" transform="translate(7,91)"/>
<path d="M0 0 C1.11167138 3.33501415 0.95951846 3.8049036 -0.2578125 6.9140625 C-0.55163818 7.67154785 -0.84546387 8.4290332 -1.14819336 9.20947266 C-1.47053955 10.00659668 -1.79288574 10.8037207 -2.125 11.625 C-2.4454126 12.43372559 -2.7658252 13.24245117 -3.09594727 14.07568359 C-5.34412025 19.64702319 -7.86271549 24.86626172 -11 30 C-11.33 30 -11.66 30 -12 30 C-12 28.35 -12 26.7 -12 25 C-11.34 25 -10.68 25 -10 25 C-9.89042969 24.38511719 -9.78085938 23.77023438 -9.66796875 23.13671875 C-9.43013672 21.92435547 -9.43013672 21.92435547 -9.1875 20.6875 C-9.03667969 19.88699219 -8.88585937 19.08648437 -8.73046875 18.26171875 C-8 16 -8 16 -6.55859375 14.58984375 C-4.32745513 12.31397052 -3.80057219 9.89950754 -2.875 6.875 C-1.08333333 1.08333333 -1.08333333 1.08333333 0 0 Z " fill="#E1C628" transform="translate(230,148)"/>
<path d="M0 0 C1.61125582 4.02813955 0.30654483 7.01159998 -1 11 C-1.37125 12.134375 -1.7425 13.26875 -2.125 14.4375 C-2.41375 15.283125 -2.7025 16.12875 -3 17 C-3.66 17 -4.32 17 -5 17 C-5.33 19.64 -5.66 22.28 -6 25 C-6.66 25 -7.32 25 -8 25 C-7.48256033 19.19173967 -6.28511523 14.47130732 -4 9.125 C-3.72671875 8.46242188 -3.4534375 7.79984375 -3.171875 7.1171875 C-2.17462122 4.71204604 -1.16471226 2.32942452 0 0 Z " fill="#CAB224" transform="translate(16,65)"/>
<path d="M0 0 C6.15234375 -0.09765625 6.15234375 -0.09765625 8 0 C8.33 0.33 8.66 0.66 9 1 C10.41327947 1.15620555 11.8335459 1.25056173 13.25390625 1.31640625 C14.10791016 1.35830078 14.96191406 1.40019531 15.84179688 1.44335938 C16.73962891 1.48267578 17.63746094 1.52199219 18.5625 1.5625 C19.46419922 1.60568359 20.36589844 1.64886719 21.29492188 1.69335938 C23.52978485 1.79978142 25.76476308 1.90179988 28 2 C28 2.33 28 2.66 28 3 C18.76 3.33 9.52 3.66 0 4 C0 2.68 0 1.36 0 0 Z " fill="#332B0D" transform="translate(99,0)"/>
<path d="M0 0 C2.31 0 4.62 0 7 0 C3.6479719 2.71156616 0.02013113 4.69023861 -3.8125 6.625 C-4.40353516 6.93695313 -4.99457031 7.24890625 -5.60351562 7.5703125 C-9.82624198 9.70700282 -13.35960403 10.560321 -18 11 C-15.7448078 8.7448078 -13.9952413 8.02276532 -11 7 C-10.01 7 -9.02 7 -8 7 C-8 6.34 -8 5.68 -8 5 C-6.865625 4.54625 -5.73125 4.0925 -4.5625 3.625 C-0.95278308 2.42904194 -0.95278308 2.42904194 0 0 Z " fill="#E0C830" transform="translate(172,217)"/>
<path d="M0 0 C0.33 0.99 0.66 1.98 1 3 C-0.59471443 5.14289751 -2.2027826 7.0374212 -4 9 C-5.27285653 10.45656779 -6.54366123 11.91493095 -7.8125 13.375 C-8.87429539 14.58395254 -9.93654675 15.79250553 -11 17 C-11.66 16.67 -12.32 16.34 -13 16 C-12.31292969 15.18015625 -11.62585938 14.3603125 -10.91796875 13.515625 C-10.00775965 12.42712752 -9.09760635 11.33858339 -8.1875 10.25 C-7.73568359 9.71117187 -7.28386719 9.17234375 -6.81835938 8.6171875 C-4.46489931 5.79990684 -2.16578632 2.964465 0 0 Z " fill="#281A05" transform="translate(216,182)"/>
<path d="M0 0 C0.66 0.33 1.32 0.66 2 1 C0.625 3 0.625 3 -1 5 C-1.66 5 -2.32 5 -3 5 C-3.66 6.32 -4.32 7.64 -5 9 C-6.32 9 -7.64 9 -9 9 C-6.49876949 4.83128248 -4.50584021 2.01577062 0 0 Z " fill="#EACD1E" transform="translate(58,19)"/>
<path d="M0 0 C0 3.80845564 -0.97798569 5.79266696 -3 9 C-5.4375 9.75 -5.4375 9.75 -8 10 C-10.23408113 10.99083967 -10.23408113 10.99083967 -12 12 C-8.39424999 7.41086363 -4.52615993 3.67832017 0 0 Z " fill="#DDC126" transform="translate(104,158)"/>
<path d="M0 0 C4.67105792 1.55701931 8.08705685 4.08447373 12 7 C11.01 7.495 11.01 7.495 10 8 C9.01 7.67 8.02 7.34 7 7 C7 6.34 7 5.68 7 5 C5.35 5 3.7 5 2 5 C1.34 3.35 0.68 1.7 0 0 Z " fill="#E4CC29" transform="translate(177,18)"/>
<path d="M0 0 C0 3 0 3 -1 6 C-2.8125 7.75 -2.8125 7.75 -5 9 C-6.32 8.67 -7.64 8.34 -9 8 C-6.03 5.36 -3.06 2.72 0 0 Z " fill="#E5CB24" transform="translate(91,170)"/>
<path d="M0 0 C1.43655854 -0.08131463 2.8744483 -0.13933559 4.3125 -0.1875 C5.51326172 -0.23970703 5.51326172 -0.23970703 6.73828125 -0.29296875 C9.47851584 0.06198392 10.29171079 0.89366282 12 3 C8.69564916 4.12377697 6.9493138 3.89554742 3.75 2.5625 C3.04359375 2.27503906 2.3371875 1.98757812 1.609375 1.69140625 C1.07828125 1.46324219 0.5471875 1.23507813 0 1 C0 0.67 0 0.34 0 0 Z " fill="#D7BC28" transform="translate(73,224)"/>
<path d="M0 0 C1.03125 0.185625 2.0625 0.37125 3.125 0.5625 C6.76148442 0.97307082 9.45437009 0.778309 13 0 C12.01 0.495 12.01 0.495 11 1 C11 1.66 11 2.32 11 3 C7.7 3.33 4.4 3.66 1 4 C0.67 2.68 0.34 1.36 0 0 Z " fill="#F6D414" transform="translate(143,226)"/>
<path d="M0 0 C2.875 -0.125 2.875 -0.125 6 0 C8 2 8 2 8 5 C9.32 5.33 10.64 5.66 12 6 C11.01 6.33 10.02 6.66 9 7 C6.73828125 5.8203125 6.73828125 5.8203125 4.3125 4.125 C3.50425781 3.57070312 2.69601563 3.01640625 1.86328125 2.4453125 C1.24839844 1.96835938 0.63351563 1.49140625 0 1 C0 0.67 0 0.34 0 0 Z " fill="#DBC225" transform="translate(51,211)"/>
<path d="M0 0 C0.763125 0.350625 1.52625 0.70125 2.3125 1.0625 C5.04759379 2.32360884 5.04759379 2.32360884 8 1 C7.625 3.9375 7.625 3.9375 7 7 C6.01 7.495 6.01 7.495 5 8 C4.16382818 6.8562364 3.33113541 5.70992861 2.5 4.5625 C2.0359375 3.92441406 1.571875 3.28632813 1.09375 2.62890625 C0 1 0 1 0 0 Z " fill="#E7C920" transform="translate(24,183)"/>
<path d="M0 0 C0 3 0 3 -2.25 5.75 C-3.1575 6.4925 -4.065 7.235 -5 8 C-6.32 7.67 -7.64 7.34 -9 7 C-6.03 4.69 -3.06 2.38 0 0 Z " fill="#DCC222" transform="translate(114,150)"/>
<path d="M0 0 C2.97246802 2.54782974 4.41535288 5.45340883 6 9 C6 9.66 6 10.32 6 11 C4 11 4 11 2.375 9.8125 C0.57850533 7.44439338 0.76478155 5.90102749 1 3 C0.34 3 -0.32 3 -1 3 C-0.67 2.01 -0.34 1.02 0 0 Z " fill="#D8C023" transform="translate(218,58)"/>
<path d="M0 0 C0.33 0.66 0.66 1.32 1 2 C0.22265625 3.7265625 0.22265625 3.7265625 -0.9375 5.625 C-1.618125 6.73875 -2.29875 7.8525 -3 9 C-3.99 9 -4.98 9 -6 9 C-6.66 10.32 -7.32 11.64 -8 13 C-8 9.00717059 -6.52191924 7.84668408 -4 4.8125 C-3.2575 3.91144531 -2.515 3.01039062 -1.75 2.08203125 C-1.1725 1.39496094 -0.595 0.70789062 0 0 Z " fill="#D3BB28" transform="translate(34,39)"/>
<path d="M0 0 C5.63308675 1.43823491 10.73677223 3.54144009 16 6 C14.68 6.33 13.36 6.66 12 7 C11.67 6.34 11.34 5.68 11 5 C9.00511766 4.63729412 7.00401011 4.30830925 5 4 C3.31624835 3.37774395 1.64232772 2.72455635 0 2 C0 1.34 0 0.68 0 0 Z " fill="#DEC535" transform="translate(155,8)"/>
<path d="M0 0 C0.763125 0.309375 1.52625 0.61875 2.3125 0.9375 C4.18789677 1.67893593 6.08684652 2.36228217 8 3 C8 4.32 8 5.64 8 7 C8.66 7 9.32 7 10 7 C9.67 7.66 9.34 8.32 9 9 C7.68412059 7.87895467 6.37239647 6.75303035 5.0625 5.625 C4.33160156 4.99851563 3.60070313 4.37203125 2.84765625 3.7265625 C1 2 1 2 0 0 Z " fill="#CFB629" transform="translate(36,198)"/>
<path d="M0 0 C1.01527342 4.06109369 1.05430484 4.66966838 -0.4375 8.25 C-0.72496094 8.95640625 -1.01242188 9.6628125 -1.30859375 10.390625 C-1.53675781 10.92171875 -1.76492187 11.4528125 -2 12 C-3.32 11.67 -4.64 11.34 -6 11 C-4.02 7.37 -2.04 3.74 0 0 Z " fill="#271B05" transform="translate(224,167)"/>
<path d="M0 0 C1.98 1.65 3.96 3.3 6 5 C3.10765685 5.82638376 1.11257569 6 -2 6 C-1.34 4.02 -0.68 2.04 0 0 Z " fill="#F0CF1A" transform="translate(136,160)"/>
<path d="M0 0 C3.36720387 1.39332574 4.9859524 2.9789286 7 6 C0.84765625 5.4140625 0.84765625 5.4140625 -1 5 C-1.33 4.34 -1.66 3.68 -2 3 C-1.34 3 -0.68 3 0 3 C0 2.01 0 1.02 0 0 Z " fill="#E8CA1A" transform="translate(124,150)"/>
<path d="M0 0 C0.66 0.99 1.32 1.98 2 3 C1.15955106 6.43183318 0.51471866 8.48528134 -2 11 C-2.25 3.375 -2.25 3.375 0 0 Z " fill="#171007" transform="translate(79,60)"/>
<path d="M0 0 C3 1 3 1 4 3 C4.66 3.33 5.32 3.66 6 4 C6 5.98 6 7.96 6 10 C3.38275905 7.63202009 1.67138271 5.10399646 0 2 C0 1.34 0 0.68 0 0 Z " fill="#DEC125" transform="translate(17,171)"/>
<path d="M0 0 C0.66 0.33 1.32 0.66 2 1 C2.40729228 3.32156597 2.74438677 5.6568787 3 8 C-1.875 5.25 -1.875 5.25 -3 3 C-2.34 3 -1.68 3 -1 3 C-0.67 2.01 -0.34 1.02 0 0 Z " fill="#181206" transform="translate(159,174)"/>
<path d="M0 0 C0.66 0.33 1.32 0.66 2 1 C1.25 2.9375 1.25 2.9375 0 5 C-2 5.6875 -2 5.6875 -4 6 C-4.99 6.495 -4.99 6.495 -6 7 C-6.66 6.34 -7.32 5.68 -8 5 C-6.71475739 4.13619741 -5.42157581 3.28419631 -4.125 2.4375 C-3.04605469 1.72400391 -3.04605469 1.72400391 -1.9453125 0.99609375 C-1.30335938 0.66738281 -0.66140625 0.33867187 0 0 Z " fill="#1E1409" transform="translate(183,214)"/>
<path d="M0 0 C1.13199353 0.9080162 2.25532363 1.82683826 3.375 2.75 C4.00148437 3.26046875 4.62796875 3.7709375 5.2734375 4.296875 C7.08312318 6.08199481 8.00117455 7.67949644 9 10 C8.34 10 7.68 10 7 10 C7 9.34 7 8.68 7 8 C5.68 7.34 4.36 6.68 3 6 C3 5.34 3 4.68 3 4 C2.34 4 1.68 4 1 4 C0.67 2.68 0.34 1.36 0 0 Z " fill="#D4BB2E" transform="translate(201,36)"/>
<path d="M0 0 C0.99 0 1.98 0 3 0 C3.6875 1.8125 3.6875 1.8125 4 4 C2.5625 5.75 2.5625 5.75 1 7 C0 6 0 6 -0.0625 2.9375 C-0.041875 1.968125 -0.02125 0.99875 0 0 Z " fill="#150D0C" transform="translate(16,56)"/>
<path d="M0 0 C0.99 0.33 1.98 0.66 3 1 C-1.75 5.875 -1.75 5.875 -4 7 C-4 6.01 -4 5.02 -4 4 C-3.34 4 -2.68 4 -2 4 C-2 3.01 -2 2.02 -2 1 C-1.34 0.67 -0.68 0.34 0 0 Z " fill="#1B0E07" transform="translate(81,175)"/>
<path d="M0 0 C0.99 0.33 1.98 0.66 3 1 C1.25 4.875 1.25 4.875 -1 6 C-1.66 5.67 -2.32 5.34 -3 5 C-1.125 1.125 -1.125 1.125 0 0 Z " fill="#0E0908" transform="translate(109,149)"/>
<path d="M0 0 C1.32 0.33 2.64 0.66 4 1 C3.21625 1.556875 2.4325 2.11375 1.625 2.6875 C-1.08704858 5.07668565 -1.96133543 6.60073413 -3 10 C-3.75 8.375 -3.75 8.375 -4 6 C-2.0625 2.75 -2.0625 2.75 0 0 Z " fill="#DCC12E" transform="translate(80,56)"/>
<path d="M0 0 C1.98 0.66 3.96 1.32 6 2 C6 3.65 6 5.3 6 7 C3.95880212 5.38405168 1.95927063 3.7143618 0 2 C0 1.34 0 0.68 0 0 Z " fill="#181003" transform="translate(126,149)"/>
<path d="M0 0 C3.36338044 3.36338044 4 6.28835716 4 11 C3.34 11 2.68 11 2 11 C0.80712589 7.12315913 0 4.08378077 0 0 Z " fill="#CDB526" transform="translate(224,69)"/>
<path d="M0 0 C1.98 0 3.96 0 6 0 C6 0.66 6 1.32 6 2 C6.99 2.33 7.98 2.66 9 3 C6.03 2.67 3.06 2.34 0 2 C0 1.34 0 0.68 0 0 Z " fill="#EBCB26" transform="translate(85,227)"/>
<path d="M0 0 C2.31 0 4.62 0 7 0 C7.33 1.32 7.66 2.64 8 4 C2.25 2.25 2.25 2.25 0 0 Z " fill="#D6BC28" transform="translate(65,220)"/>
<path d="M0 0 C3.16115776 1.36983503 3.9927092 1.9890638 6 5 C4.35 5.33 2.7 5.66 1 6 C0.67 4.02 0.34 2.04 0 0 Z " fill="#DCC121" transform="translate(193,29)"/>
<path d="M0 0 C1.65 0.33 3.3 0.66 5 1 C5 2.65 5 4.3 5 6 C3.02 4.68 1.04 3.36 -1 2 C-0.67 1.34 -0.34 0.68 0 0 Z " fill="#130A07" transform="translate(193,26)"/>
<path d="M0 0 C0.99 0.33 1.98 0.66 3 1 C0.63707344 3.52588702 -0.66462511 4.88820837 -4 6 C-3.67 4.68 -3.34 3.36 -3 2 C-2.01 2 -1.02 2 0 2 C0 1.34 0 0.68 0 0 Z " fill="#E8CC2D" transform="translate(183,211)"/>
<path d="M0 0 C2.125 0.9375 2.125 0.9375 4 2 C2.68 2.99 1.36 3.98 0 5 C-0.66 4.67 -1.32 4.34 -2 4 C-2 3.01 -2 2.02 -2 1 C-1.34 0.67 -0.68 0.34 0 0 Z " fill="#1B130B" transform="translate(98,159)"/>
</svg>
